<svg width="138" height="52" viewBox="0 0 138 52" fill="none" xmlns="http://www.w3.org/2000/svg">
<path d="M6.1 46V12.85H13.2V46H6.1ZM1.15 25.9V19.55H18.6V25.9H1.15ZM34.5336 46.5C31.6669 46.5 29.1669 45.9167 27.0336 44.75C24.9003 43.5833 23.2336 41.9833 22.0336 39.95C20.8336 37.9167 20.2336 35.5833 20.2336 32.95C20.2336 30.9167 20.5669 29.05 21.2336 27.35C21.9003 25.65 22.8336 24.1833 24.0336 22.95C25.2336 21.6833 26.6503 20.7167 28.2836 20.05C29.9503 19.35 31.7503 19 33.6836 19C35.4836 19 37.1503 19.3333 38.6836 20C40.2169 20.6333 41.5336 21.55 42.6336 22.75C43.7669 23.9167 44.6336 25.3 45.2336 26.9C45.8336 28.5 46.1003 30.25 46.0336 32.15L45.9836 34.35H24.7336L23.5836 30H40.1336L39.3336 30.9V29.8C39.2669 28.9 38.9669 28.0833 38.4336 27.35C37.9336 26.6167 37.2836 26.05 36.4836 25.65C35.6836 25.25 34.7836 25.05 33.7836 25.05C32.3169 25.05 31.0669 25.3333 30.0336 25.9C29.0336 26.4667 28.2669 27.3 27.7336 28.4C27.2003 29.5 26.9336 30.8333 26.9336 32.4C26.9336 34 27.2669 35.3833 27.9336 36.55C28.6336 37.7167 29.6003 38.6333 30.8336 39.3C32.1003 39.9333 33.5836 40.25 35.2836 40.25C36.4503 40.25 37.5169 40.0667 38.4836 39.7C39.4503 39.3333 40.4836 38.7 41.5836 37.8L44.9836 42.55C44.0169 43.4167 42.9503 44.15 41.7836 44.75C40.6169 45.3167 39.4169 45.75 38.1836 46.05C36.9503 46.35 35.7336 46.5 34.5336 46.5ZM60.1805 46.5C57.9805 46.5 55.9971 45.9 54.2305 44.7C52.4638 43.5 51.0638 41.8667 50.0305 39.8C48.9971 37.7333 48.4805 35.3667 48.4805 32.7C48.4805 30.0333 48.9971 27.6833 50.0305 25.65C51.0971 23.5833 52.5305 21.9667 54.3305 20.8C56.1305 19.6 58.1805 19 60.4805 19C61.7805 19 62.9638 19.2 64.0305 19.6C65.1305 19.9667 66.0805 20.4833 66.8805 21.15C67.7138 21.8167 68.4138 22.5833 68.9805 23.45C69.5471 24.3167 69.9471 25.25 70.1805 26.25L68.6805 26V19.55H75.7305V46H68.5805V39.65L70.1805 39.5C69.9138 40.4333 69.4805 41.3167 68.8805 42.15C68.2805 42.9833 67.5305 43.7333 66.6305 44.4C65.7638 45.0333 64.7805 45.55 63.6805 45.95C62.5805 46.3167 61.4138 46.5 60.1805 46.5ZM62.1305 40.35C63.4638 40.35 64.6305 40.0333 65.6305 39.4C66.6305 38.7667 67.3971 37.8833 67.9305 36.75C68.4971 35.5833 68.7805 34.2333 68.7805 32.7C68.7805 31.2 68.4971 29.8833 67.9305 28.75C67.3971 27.6167 66.6305 26.7333 65.6305 26.1C64.6305 25.4333 63.4638 25.1 62.1305 25.1C60.8305 25.1 59.6805 25.4333 58.6805 26.1C57.7138 26.7333 56.9471 27.6167 56.3805 28.75C55.8138 29.8833 55.5305 31.2 55.5305 32.7C55.5305 34.2333 55.8138 35.5833 56.3805 36.75C56.9471 37.8833 57.7138 38.7667 58.6805 39.4C59.6805 40.0333 60.8305 40.35 62.1305 40.35ZM81.7988 46V19.55H88.6488L88.7988 24.6L87.7488 24.8C88.1155 23.9333 88.5988 23.15 89.1988 22.45C89.7988 21.75 90.4988 21.15 91.2988 20.65C92.1322 20.15 92.9988 19.7667 93.8988 19.5C94.7988 19.2 95.6988 19.05 96.5988 19.05C97.9655 19.05 99.1988 19.2667 100.299 19.7C101.399 20.1333 102.332 20.8167 103.099 21.75C103.865 22.65 104.465 23.85 104.899 25.35L103.799 25.25L104.149 24.45C104.582 23.65 105.132 22.9333 105.799 22.3C106.465 21.6333 107.215 21.0667 108.049 20.6C108.882 20.1 109.749 19.7167 110.649 19.45C111.549 19.1833 112.432 19.05 113.299 19.05C115.365 19.05 117.082 19.4667 118.449 20.3C119.815 21.1 120.832 22.3167 121.499 23.95C122.199 25.5833 122.549 27.5833 122.549 29.95V46H115.449V30.45C115.449 29.25 115.282 28.2667 114.949 27.5C114.615 26.7333 114.132 26.1667 113.499 25.8C112.865 25.4 112.049 25.2 111.049 25.2C110.282 25.2 109.565 25.3333 108.899 25.6C108.265 25.8333 107.699 26.1833 107.199 26.65C106.732 27.0833 106.365 27.6 106.099 28.2C105.832 28.8 105.699 29.4667 105.699 30.2V46H98.5988V30.4C98.5988 29.3 98.4155 28.3667 98.0488 27.6C97.7155 26.8 97.2322 26.2 96.5988 25.8C95.9655 25.4 95.1822 25.2 94.2488 25.2C93.4822 25.2 92.7655 25.3333 92.0988 25.6C91.4655 25.8333 90.9155 26.1833 90.4488 26.65C89.9822 27.0833 89.5988 27.6 89.2988 28.2C89.0322 28.8 88.8988 29.45 88.8988 30.15V46H81.7988Z" fill="#F5F5F5"/>
<path d="M131.208 46.572C129.856 46.572 128.816 46.1907 128.088 45.428C127.36 44.6653 126.996 43.5733 126.996 42.152C126.996 40.8693 127.377 39.8293 128.14 39.032C128.937 38.2 129.96 37.784 131.208 37.784C132.525 37.784 133.548 38.1653 134.276 38.928C135.004 39.6907 135.368 40.7653 135.368 42.152C135.368 43.4693 134.986 44.544 134.224 45.376C133.461 46.1733 132.456 46.572 131.208 46.572Z" fill="#5468E7"/>
</svg>
